<?xml version="1.0" encoding="utf-8"?>
<!-- Generator: Adobe Illustrator 26.5.0, SVG Export Plug-In . SVG Version: 6.00 Build 0)  -->
<svg version="1.1" id="Layer_1" xmlns="http://www.w3.org/2000/svg" xmlns:xlink="http://www.w3.org/1999/xlink" x="0px" y="0px"
	 viewBox="0 0 198.2 45" style="enable-background:new 0 0 198.2 45;" xml:space="preserve">
<style type="text/css">
	.st0{display:none;fill:#FFFFFF;}
	.st1{fill:#FFFFFF;}
</style>
<g id="Layer_1-2">
	<g>
		<path class="st0" d="M4,58.9v-1c0-0.3-0.1-0.4-0.4-0.4H1.5v1.4H0.7v-3.6h2.8c1,0,1.2,0.2,1.2,0.9v0.5c0,0.4-0.2,0.5-0.4,0.6
			c0.2,0,0.4,0.2,0.4,0.6v1H4L4,58.9z M4,56.3c0-0.4-0.1-0.5-0.6-0.5H1.5V57h2.1C3.9,57,4,56.9,4,56.6V56.3L4,56.3z M5.2,58.9v-3.6
			H6v3.6H5.2z M7.8,58.9c-1,0-1.3-0.2-1.3-0.9v-1.9c0-0.7,0.3-0.9,1.3-0.9h2.7v0.5H8c-0.6,0-0.7,0.1-0.7,0.5v1.6
			c0,0.4,0.2,0.5,0.7,0.5h1.8v-1H8.2v-0.5h2.3v2.1L7.8,58.9L7.8,58.9z M12.3,58.9c-1,0-1.3-0.2-1.3-0.9v-1.9c0-0.7,0.3-0.9,1.3-0.9
			H15v0.5h-2.5c-0.6,0-0.7,0.1-0.7,0.5v1.6c0,0.4,0.2,0.5,0.7,0.5h1.8v-1h-1.6v-0.5H15v2.1L12.3,58.9L12.3,58.9z M15.6,58.9v-3.6
			h0.7v3.6H15.6z M20.2,58.9l-2.5-2.6v2.6H17v-3.6h0.8l2.4,2.7v-2.7h0.7v3.6H20.2z M22.7,58.9c-1,0-1.3-0.2-1.3-0.9v-1.9
			c0-0.7,0.3-0.9,1.3-0.9h2.7v0.5h-2.5c-0.6,0-0.7,0.1-0.7,0.5v1.6c0,0.4,0.2,0.5,0.7,0.5h1.8v-1h-1.6v-0.5h2.3v2.1L22.7,58.9
			L22.7,58.9z M31.5,56.9v0.5h-1v0.7c0,0.3,0.1,0.4,0.5,0.4h0.4V59H31c-0.4,0-0.6-0.1-0.7-0.2C30.2,58.9,30,59,29.6,59H29
			c-0.9,0-1.3-0.2-1.3-0.9v-0.3c0-0.4,0.2-0.6,0.4-0.6c-0.2,0-0.4-0.2-0.4-0.6v-0.4c0-0.7,0.3-0.9,1.3-0.9h2v0.5h-2
			c-0.5,0-0.6,0.1-0.6,0.5v0.2c0,0.3,0.1,0.4,0.4,0.4H31.5z M29.4,58.4c0.4,0,0.5-0.1,0.5-0.4v-0.7h-1.2c-0.3,0-0.4,0.1-0.4,0.4v0.2
			c0,0.4,0.2,0.5,0.6,0.5H29.4L29.4,58.4z M34.9,58.9c-1,0-1.3-0.2-1.3-0.9v-1.9c0-0.7,0.3-0.9,1.3-0.9h2.5v0.5h-2.3
			c-0.5,0-0.7,0.1-0.7,0.5v1.6c0,0.4,0.2,0.5,0.7,0.5h2.3v0.5L34.9,58.9L34.9,58.9z M39.2,58.9c-1,0-1.3-0.2-1.3-0.9v-1.9
			c0-0.7,0.3-0.9,1.3-0.9h1.7c1,0,1.3,0.1,1.3,0.9V58c0,0.7-0.3,0.9-1.3,0.9H39.2z M41.5,56.4c0-0.4-0.2-0.5-0.7-0.5h-1.3
			c-0.6,0-0.7,0.1-0.7,0.5V58c0,0.4,0.2,0.5,0.7,0.5h1.3c0.6,0,0.7-0.1,0.7-0.5V56.4z M45.9,58.9l-2.5-2.6v2.6h-0.7v-3.6h0.8L46,58
			v-2.7h0.7v3.6C46.7,58.9,45.9,58.9,45.9,58.9z M47.2,58.9v-0.5H50c0.4,0,0.4-0.1,0.4-0.4v-0.3c0-0.2-0.1-0.4-0.4-0.4h-2
			c-0.6,0-0.9-0.3-0.9-0.7V56c0-0.6,0.2-0.8,1-0.8h2.7v0.5h-2.6c-0.4,0-0.5,0.1-0.5,0.4v0.3c0,0.2,0.1,0.4,0.4,0.4h2
			c0.6,0,0.9,0.3,0.9,0.7V58c0,0.6-0.2,0.8-1,0.8L47.2,58.9L47.2,58.9z M53,58.9v-3.1h-1.5v-0.5h3.7v0.5h-1.5v3.1H53z M58.9,58.9v-1
			c0-0.3-0.1-0.4-0.4-0.4h-2.1v1.4h-0.7v-3.6h2.8c1,0,1.2,0.2,1.2,0.9v0.5c0,0.4-0.2,0.5-0.4,0.6c0.2,0,0.4,0.2,0.4,0.6v1H58.9
			L58.9,58.9z M58.9,56.3c0-0.4-0.1-0.5-0.6-0.5h-1.9V57h2.1c0.3,0,0.4-0.1,0.4-0.4V56.3L58.9,56.3z M61.4,58.9
			c-1,0-1.3-0.2-1.3-0.9v-2.7h0.8v2.6c0,0.4,0.2,0.5,0.7,0.5h1.2c0.6,0,0.7-0.1,0.7-0.5v-2.6h0.7V58c0,0.7-0.3,0.9-1.3,0.9H61.4z
			 M66.1,58.9c-1,0-1.3-0.2-1.3-0.9v-1.9c0-0.7,0.3-0.9,1.3-0.9h2.5v0.5h-2.3c-0.5,0-0.7,0.1-0.7,0.5v1.6c0,0.4,0.2,0.5,0.7,0.5h2.3
			v0.5L66.1,58.9L66.1,58.9z M70.6,58.9v-3.1h-1.5v-0.5h3.7v0.5h-1.5v3.1H70.6z M73.2,58.9v-3.6h0.7v3.6H73.2z M75.8,58.9
			c-1,0-1.3-0.2-1.3-0.9v-1.9c0-0.7,0.3-0.9,1.3-0.9h1.7c1,0,1.3,0.1,1.3,0.9V58c0,0.7-0.3,0.9-1.3,0.9H75.8z M78,56.4
			c0-0.4-0.2-0.5-0.7-0.5H76c-0.6,0-0.7,0.1-0.7,0.5V58c0,0.4,0.2,0.5,0.7,0.5h1.3c0.6,0,0.7-0.1,0.7-0.5V56.4z M82.5,58.9L80,56.3
			v2.6h-0.7v-3.6h0.8l2.4,2.7v-2.7h0.7v3.6C83.2,58.9,82.5,58.9,82.5,58.9z"/>
		<path class="st1" d="M22.2,14.6h-0.4l-14,1.7l-0.6,0.1H4.1c-0.3-0.4-0.8-0.6-1.4-0.6c-1,0-1.8,0.8-1.8,1.8c0,0.5,0.2,1,0.6,1.3
			v7.2H0v1.3h0.6v2.1c0,1,0.7,1.8,1.7,1.9c0,0.6-0.1,1-0.2,1.3c-0.2,0.3-0.3,0.4-0.6,0.8c-0.1,0.1-0.3,0.6-0.4,1.1
			c0,0.6,0.1,1.4,0.8,1.9c0,0,1,0.8,2.1,0.4c0.6-0.3,1.1-0.8,1.2-1.3c0.1-0.2,0.1-0.5,0.1-1c0-0.4,0-0.7,0-0.9
			C5,33.8,4.7,34,4.5,34.3c-0.4,0.5-0.2,0.9-0.5,1.2c-0.3,0.2-0.8,0.2-1.1,0c-0.3-0.3-0.3-0.9-0.2-1.1C2.8,34,3,33.8,3.1,33.5
			c0.2-0.4,0.5-1,0.4-1.9l0,0c0.9-0.2,1.6-1,1.6-1.9v-2.1h0.6v-1.3H4.1v-5.6h17c1.6,0,2.8,1.3,2.8,2.8c0,1.6-1.3,2.8-2.8,2.8H7.9V37
			h7.6v-4.5h6.8c4.9,0,8.9-4,8.9-8.9l0,0C31.1,18.6,27.1,14.6,22.2,14.6L22.2,14.6z M2.7,18.4c-0.5,0-0.8-0.4-0.8-0.8
			s0.4-0.8,0.8-0.8s0.8,0.4,0.8,0.8S3.2,18.4,2.7,18.4z M20.7,16.4H16c0,0-0.1,0-0.1-0.1s0-0.2,0.1-0.2c1.6-0.2,3.1-0.4,4.7-0.6
			V16.4z M22.8,17.6c-0.4,0-0.8-0.3-0.8-0.8s0.3-0.8,0.8-0.8s0.8,0.3,0.8,0.8S23.3,17.6,22.8,17.6z"/>
	</g>
</g>
<g>
	<g>
		<path class="st1" d="M41.8,37.8H31.6V16.5h10.2v3h-0.1c0.2-0.4,0.6-0.9,1.1-1.4c0.5-0.6,1.3-1.1,2.2-1.5s2.2-0.7,3.6-0.7
			c1,0,1.9,0.2,2.8,0.5c0.9,0.3,1.5,0.6,2,0.9l-3.9,8.3c-0.2-0.3-0.6-0.7-1.3-1.1c-0.6-0.4-1.4-0.5-2.3-0.5c-1,0-1.8,0.2-2.4,0.6
			c-0.6,0.4-1,0.9-1.3,1.5s-0.4,1.2-0.4,1.8C41.8,27.9,41.8,37.8,41.8,37.8z"/>
		<path class="st1" d="M62.8,38.4c-2.4,0-4.6-0.5-6.5-1.4s-3.4-2.3-4.4-4c-1.1-1.7-1.6-3.6-1.6-5.9s0.5-4.2,1.6-5.9s2.6-3,4.4-4
			c1.9-1,4-1.5,6.5-1.5c2.4,0,4.6,0.5,6.4,1.5c1.9,1,3.3,2.3,4.4,4c1,1.7,1.6,3.7,1.6,5.9s-0.5,4.2-1.6,5.9c-1,1.7-2.5,3-4.4,4
			S65.2,38.4,62.8,38.4z M62.8,30.1c0.6,0,1.1-0.1,1.5-0.4c0.4-0.2,0.7-0.6,0.9-1c0.2-0.5,0.3-1,0.3-1.6s-0.1-1.1-0.3-1.6
			c-0.2-0.5-0.5-0.8-0.9-1s-0.9-0.4-1.5-0.4s-1.1,0.1-1.5,0.4c-0.4,0.2-0.7,0.6-0.9,1c-0.2,0.5-0.3,1-0.3,1.6s0.1,1.1,0.3,1.6
			s0.5,0.8,0.9,1C61.8,30,62.2,30.1,62.8,30.1z"/>
		<path class="st1" d="M87.5,30.5c0.7,0,1.3-0.1,1.9-0.4c0.5-0.3,0.9-0.5,1.1-0.8l4.6,6.8c-0.3,0.3-0.9,0.6-1.6,0.9
			c-0.7,0.4-1.5,0.7-2.6,0.9s-2.2,0.4-3.5,0.4c-2.8,0-5.2-0.5-7.2-1.5s-3.5-2.3-4.5-4s-1.5-3.6-1.5-5.9c0-2.2,0.5-4.2,1.5-5.9
			s2.5-3,4.5-4s4.4-1.4,7.2-1.4c1.3,0,2.4,0.1,3.4,0.4s1.9,0.5,2.7,0.9c0.7,0.3,1.3,0.6,1.6,0.9l-4.6,7c-0.1-0.1-0.3-0.2-0.6-0.4
			c-0.3-0.2-0.6-0.3-1-0.5s-0.9-0.2-1.4-0.2c-0.7,0-1.3,0.2-1.8,0.5s-0.9,0.7-1.2,1.3c-0.3,0.5-0.4,1.1-0.4,1.6
			c0,0.6,0.1,1.1,0.4,1.6s0.7,0.9,1.2,1.3C86.2,30.4,86.8,30.5,87.5,30.5z"/>
		<path class="st1" d="M110.5,15.8c1.6,0,3.1,0.3,4.6,0.9s2.7,1.6,3.7,2.9s1.4,3.1,1.4,5.3v12.9H110V26.6c0-1.1-0.2-2-0.7-2.6
			s-1.2-1-2.1-1c-0.6,0-1.2,0.1-1.7,0.4s-1,0.7-1.3,1.2s-0.5,1.2-0.5,1.9v11.3H93.3V2h10.2v17.1c0.2-0.6,0.7-1.1,1.3-1.6
			c0.7-0.5,1.5-0.9,2.4-1.2C108.1,16,109.4,15.8,110.5,15.8z"/>
		<path class="st1" d="M131.7,38.4c-2.4,0-4.6-0.5-6.5-1.4s-3.4-2.3-4.4-4c-1.1-1.7-1.6-3.6-1.6-5.9s0.5-4.2,1.6-5.9s2.6-3,4.4-4
			c1.9-1,4-1.5,6.5-1.5s4.6,0.5,6.4,1.5c1.9,1,3.3,2.3,4.4,4c1,1.7,1.6,3.7,1.6,5.9s-0.5,4.2-1.6,5.9c-1,1.7-2.5,3-4.4,4
			S134.1,38.4,131.7,38.4z M131.7,30.1c0.6,0,1.1-0.1,1.5-0.4c0.4-0.2,0.7-0.6,0.9-1c0.2-0.5,0.3-1,0.3-1.6s-0.1-1.1-0.3-1.6
			s-0.5-0.8-0.9-1s-0.9-0.4-1.5-0.4s-1.1,0.1-1.5,0.4c-0.4,0.2-0.7,0.6-0.9,1c-0.2,0.5-0.3,1-0.3,1.6s0.1,1.1,0.3,1.6s0.5,0.8,0.9,1
			S131.1,30.1,131.7,30.1z"/>
		<path class="st1" d="M149.1,14.1c-1.5,0-2.8-0.5-3.9-1.6c-1.1-1.1-1.6-2.4-1.6-3.9s0.5-2.8,1.6-3.9s2.4-1.7,3.9-1.7
			c1,0,1.9,0.3,2.8,0.8c0.8,0.5,1.5,1.2,2,2s0.8,1.8,0.8,2.8c0,1.5-0.5,2.8-1.6,3.9C151.9,13.5,150.6,14.1,149.1,14.1z M143.9,37.8
			V16.5h10.2v21.3H143.9z"/>
		<path class="st1" d="M167.4,30.5c0.7,0,1.3-0.1,1.9-0.4c0.5-0.3,0.9-0.5,1.1-0.8l4.6,6.8c-0.3,0.3-0.9,0.6-1.6,0.9
			c-0.7,0.4-1.5,0.7-2.6,0.9s-2.2,0.4-3.5,0.4c-2.8,0-5.2-0.5-7.2-1.5s-3.5-2.3-4.5-4s-1.5-3.6-1.5-5.9c0-2.2,0.5-4.2,1.5-5.9
			s2.5-3,4.5-4s4.4-1.4,7.2-1.4c1.3,0,2.4,0.1,3.4,0.4s1.9,0.5,2.7,0.9c0.7,0.3,1.3,0.6,1.6,0.9l-4.7,7c-0.1-0.1-0.3-0.2-0.6-0.4
			c-0.3-0.2-0.6-0.3-1-0.5s-0.9-0.2-1.4-0.2c-0.7,0-1.3,0.2-1.8,0.5s-0.9,0.7-1.2,1.3c-0.3,0.5-0.4,1.1-0.4,1.6
			c0,0.6,0.1,1.1,0.4,1.6s0.7,0.9,1.2,1.3C166.1,30.4,166.7,30.5,167.4,30.5z"/>
		<path class="st1" d="M182.3,29.1c0.1,0.4,0.3,0.8,0.7,1.1c0.4,0.3,0.8,0.5,1.4,0.7c0.6,0.2,1.2,0.2,1.9,0.2c0.8,0,1.5,0,2.2-0.1
			s1.4-0.2,2-0.3s1.1-0.4,1.5-0.6l3.7,6.4c-0.3,0.2-0.9,0.5-1.6,0.8c-0.8,0.3-1.8,0.6-3.2,0.8s-3.1,0.4-5.3,0.4
			c-2.4,0-4.6-0.4-6.6-1.2s-3.5-2.1-4.7-3.8s-1.7-3.9-1.7-6.5c0-2.1,0.5-4,1.4-5.6c1-1.7,2.3-3,4.1-4s4-1.5,6.6-1.5
			c2.5,0,4.6,0.4,6.4,1.2s3.2,2.1,4.2,3.8c1,1.7,1.5,3.9,1.5,6.6c0,0.1,0,0.4,0,0.8s0,0.7-0.1,0.8C196.7,29.1,182.3,29.1,182.3,29.1
			z M187.1,25c0-0.6-0.1-1-0.3-1.4s-0.5-0.7-0.8-0.8c-0.3-0.2-0.7-0.3-1.2-0.3c-0.4,0-0.8,0.1-1.1,0.2c-0.4,0.2-0.6,0.4-0.9,0.8
			c-0.2,0.4-0.3,0.9-0.4,1.5C182.4,25,187.1,25,187.1,25z"/>
	</g>
</g>
</svg>
